solid 
facet normal -1 5.5537515e-17 6.0172515e-21
 outer loop
  vertex 5.37946e-19 0.00969077 0.00246757
  vertex 5.44105e-19 0.00980172 0.00198146
  vertex 5.48911e-19 0.00988831 0.00149042
 endloop
endfacet
facet normal -1 5.5538045e-17 2.7430074e-21
 outer loop
  vertex 5.48911e-19 0.00988831 0.00149042
  vertex 5.52353e-19 0.00995031 0.000995678
  vertex 5.54421e-19 0.00998757 0.000498459
 endloop
endfacet
facet normal -1 -4.46055e-14 0
 outer loop
  vertex 5.54421e-19 0.00998757 0.000498459
  vertex 1.35963e-34 0.01 -2.44929e-18
  vertex 5.54421e-19 0.00998757 -0.000498459
 endloop
endfacet
facet normal -1 5.5538045e-17 -2.7430074e-21
 outer loop
  vertex 5.54421e-19 0.00998757 -0.000498459
  vertex 5.52353e-19 0.00995031 -0.000995678
  vertex 5.48911e-19 0.00988831 -0.00149042
 endloop
endfacet
facet normal -1 5.5537515e-17 -6.0172515e-21
 outer loop
  vertex 5.48911e-19 0.00988831 -0.00149042
  vertex 5.44105e-19 0.00980172 -0.00198146
  vertex 5.37946e-19 0.00969077 -0.00246757
 endloop
endfacet
facet normal -1 5.5475573e-17 1.163164e-20
 outer loop
  vertex 5.37946e-19 0.00969077 -0.00246757
  vertex 5.30449e-19 0.00955573 -0.00294755
  vertex 5.21634e-19 0.00939693 -0.0034202
 endloop
endfacet
facet normal -1 5.553984e-17 -1.2273733e-20
 outer loop
  vertex 5.21634e-19 0.00939693 -0.0034202
  vertex 5.11522e-19 0.00921476 -0.00388435
  vertex 5.00138e-19 0.00900969 -0.00433884
 endloop
endfacet
facet normal -1 5.549626e-17 7.414372e-21
 outer loop
  vertex 5.00138e-19 0.00900969 -0.00433884
  vertex 4.87511e-19 0.00878222 -0.00478254
  vertex 4.73672e-19 0.00853291 -0.00521435
 endloop
endfacet
facet normal -1 5.551831e-17 -4.2631895e-21
 outer loop
  vertex 4.73672e-19 0.00853291 -0.00521435
  vertex 4.58655e-19 0.00826239 -0.0056332
  vertex 4.42497e-19 0.00797132 -0.00603804
 endloop
endfacet
facet normal -1 5.551319e-17 -2.418749e-21
 outer loop
  vertex 4.42497e-19 0.00797132 -0.00603804
  vertex 4.2524e-19 0.00766044 -0.00642788
  vertex 4.06926e-19 0.00733052 -0.00680173
 endloop
endfacet
facet normal -1 5.5493615e-17 1.9286353e-20
 outer loop
  vertex 4.06926e-19 0.00733052 -0.00680173
  vertex 3.87599e-19 0.00698237 -0.00715867
  vertex 3.67309e-19 0.00661686 -0.00749781
 endloop
endfacet
facet normal -1 5.549976e-17 1.3553957e-20
 outer loop
  vertex 3.67309e-19 0.00661686 -0.00749781
  vertex 3.46106e-19 0.0062349 -0.00781832
  vertex 3.24043e-19 0.00583744 -0.00811938
 endloop
endfacet
facet normal -1 5.552614e-17 -2.368097e-20
 outer loop
  vertex 3.24043e-19 0.00583744 -0.00811938
  vertex 3.01174e-19 0.00542546 -0.00840026
  vertex 2.77556e-19 0.005 -0.00866025
 endloop
endfacet
facet normal -1 5.5509593e-17 3.8815337e-21
 outer loop
  vertex 2.77556e-19 0.005 -0.00866025
  vertex 2.53248e-19 0.00456211 -0.00889872
  vertex 2.2831e-19 0.00411287 -0.00911506
 endloop
endfacet
facet normal -1 5.551045e-17 8.910364e-22
 outer loop
  vertex 2.2831e-19 0.00411287 -0.00911506
  vertex 2.02805e-19 0.00365341 -0.00930874
  vertex 1.76796e-19 0.00318487 -0.00947927
 endloop
endfacet
facet normal -1 5.552188e-17 -3.7504695e-20
 outer loop
  vertex 1.76796e-19 0.00318487 -0.00947927
  vertex 1.50347e-19 0.0027084 -0.00962624
  vertex 1.23524e-19 0.00222521 -0.00974928
 endloop
endfacet
facet normal -1 5.551362e-17 -1.2729299e-20
 outer loop
  vertex 1.23524e-19 0.00222521 -0.00974928
  vertex 9.63941e-20 0.00173648 -0.00984808
  vertex 6.90246e-20 0.00124344 -0.00992239
 endloop
endfacet
facet normal -1 5.551134e-17 -4.836522e-21
 outer loop
  vertex 6.90246e-20 0.00124344 -0.00992239
  vertex 4.14835e-20 0.000747301 -0.00997204
  vertex 1.38393e-20 0.000249307 -0.00999689
 endloop
endfacet
facet normal -1 5.551108e-17 -5.093205e-22
 outer loop
  vertex 1.38393e-20 0.000249307 -0.00999689
  vertex -1.38393e-20 -0.000249307 -0.00999689
  vertex -4.14835e-20 -0.000747301 -0.00997204
 endloop
endfacet
facet normal -1 5.5509226e-17 -1.6555466e-20
 outer loop
  vertex -4.14835e-20 -0.000747301 -0.00997204
  vertex -6.90246e-20 -0.00124344 -0.00992239
  vertex -9.63941e-20 -0.00173648 -0.00984808
 endloop
endfacet
facet normal -1 5.550611e-17 -2.4439413e-20
 outer loop
  vertex -9.63941e-20 -0.00173648 -0.00984808
  vertex -1.23524e-19 -0.00222521 -0.00974928
  vertex -1.50347e-19 -0.0027084 -0.00962624
 endloop
endfacet
facet normal -1 5.5507968e-17 -7.702835e-21
 outer loop
  vertex -1.50347e-19 -0.0027084 -0.00962624
  vertex -1.76796e-19 -0.00318487 -0.00947927
  vertex -2.02805e-19 -0.00365341 -0.00930874
 endloop
endfacet
facet normal -1 5.5505738e-17 -1.1841741e-20
 outer loop
  vertex -2.02805e-19 -0.00365341 -0.00930874
  vertex -2.2831e-19 -0.00411287 -0.00911506
  vertex -2.53248e-19 -0.00456211 -0.00889872
 endloop
endfacet
facet normal -1 5.551259e-17 1.5920025e-21
 outer loop
  vertex -2.53248e-19 -0.00456211 -0.00889872
  vertex -2.77556e-19 -0.005 -0.00866025
  vertex -3.01174e-19 -0.00542546 -0.00840026
 endloop
endfacet
facet normal -1 5.5509815e-17 -2.5462736e-22
 outer loop
  vertex -3.01174e-19 -0.00542546 -0.00840026
  vertex -3.24043e-19 -0.00583744 -0.00811938
  vertex -3.46106e-19 -0.0062349 -0.00781832
 endloop
endfacet
facet normal -1 5.5507108e-17 -4.712157e-21
 outer loop
  vertex -3.46106e-19 -0.0062349 -0.00781832
  vertex -3.67309e-19 -0.00661686 -0.00749781
  vertex -3.87599e-19 -0.00698237 -0.00715867
 endloop
endfacet
facet normal -1 5.554129e-17 2.7177294e-20
 outer loop
  vertex -3.87599e-19 -0.00698237 -0.00715867
  vertex -4.06926e-19 -0.00733052 -0.00680173
  vertex -4.2524e-19 -0.00766044 -0.00642788
 endloop
endfacet
facet normal -1 5.5489625e-17 -1.6368311e-20
 outer loop
  vertex -4.2524e-19 -0.00766044 -0.00642788
  vertex -4.42497e-19 -0.00797132 -0.00603804
  vertex -4.58655e-19 -0.00826239 -0.0056332
 endloop
endfacet
facet normal -1 5.553401e-17 1.4421896e-20
 outer loop
  vertex -4.58655e-19 -0.00826239 -0.0056332
  vertex -4.73672e-19 -0.00853291 -0.00521435
  vertex -4.87511e-19 -0.00878222 -0.00478254
 endloop
endfacet
facet normal -1 5.5496255e-17 -7.3995005e-21
 outer loop
  vertex -4.87511e-19 -0.00878222 -0.00478254
  vertex -5.00138e-19 -0.00900969 -0.00433884
  vertex -5.11522e-19 -0.00921476 -0.00388435
 endloop
endfacet
facet normal -1 5.5499187e-17 -3.6830964e-21
 outer loop
  vertex -5.11522e-19 -0.00921476 -0.00388435
  vertex -5.21634e-19 -0.00939693 -0.0034202
  vertex -5.30449e-19 -0.00955573 -0.00294755
 endloop
endfacet
facet normal -1 5.554155e-17 6.9477355e-21
 outer loop
  vertex -5.30449e-19 -0.00955573 -0.00294755
  vertex -5.37946e-19 -0.00969077 -0.00246757
  vertex -5.44105e-19 -0.00980172 -0.00198146
 endloop
endfacet
facet normal -1 5.5472026e-17 -5.528991e-21
 outer loop
  vertex -5.44105e-19 -0.00980172 -0.00198146
  vertex -5.48911e-19 -0.00988831 -0.00149042
  vertex -5.52353e-19 -0.00995031 -0.000995678
 endloop
endfacet
facet normal -1 5.545511e-17 -3.47185e-21
 outer loop
  vertex -5.52353e-19 -0.00995031 -0.000995678
  vertex -5.54421e-19 -0.00998757 -0.000498459
  vertex -5.55112e-19 -0.01 -3.43025e-17
 endloop
endfacet
facet normal -1 5.545511e-17 3.47185e-21
 outer loop
  vertex -5.55112e-19 -0.01 -3.43025e-17
  vertex -5.54421e-19 -0.00998757 0.000498459
  vertex -5.52353e-19 -0.00995031 0.000995678
 endloop
endfacet
facet normal -1 5.5472026e-17 5.528991e-21
 outer loop
  vertex -5.52353e-19 -0.00995031 0.000995678
  vertex -5.48911e-19 -0.00988831 0.00149042
  vertex -5.44105e-19 -0.00980172 0.00198146
 endloop
endfacet
facet normal -1 5.554155e-17 -6.9477355e-21
 outer loop
  vertex -5.44105e-19 -0.00980172 0.00198146
  vertex -5.37946e-19 -0.00969077 0.00246757
  vertex -5.30449e-19 -0.00955573 0.00294755
 endloop
endfacet
facet normal -1 5.5499187e-17 3.6830964e-21
 outer loop
  vertex -5.30449e-19 -0.00955573 0.00294755
  vertex -5.21634e-19 -0.00939693 0.0034202
  vertex -5.11522e-19 -0.00921476 0.00388435
 endloop
endfacet
facet normal -1 5.5496255e-17 7.3995005e-21
 outer loop
  vertex -5.11522e-19 -0.00921476 0.00388435
  vertex -5.00138e-19 -0.00900969 0.00433884
  vertex -4.87511e-19 -0.00878222 0.00478254
 endloop
endfacet
facet normal -1 5.553401e-17 -1.4421896e-20
 outer loop
  vertex -4.87511e-19 -0.00878222 0.00478254
  vertex -4.73672e-19 -0.00853291 0.00521435
  vertex -4.58655e-19 -0.00826239 0.0056332
 endloop
endfacet
facet normal -1 5.5489625e-17 1.6368311e-20
 outer loop
  vertex -4.58655e-19 -0.00826239 0.0056332
  vertex -4.42497e-19 -0.00797132 0.00603804
  vertex -4.2524e-19 -0.00766044 0.00642788
 endloop
endfacet
facet normal -1 5.554129e-17 -2.7177294e-20
 outer loop
  vertex -4.2524e-19 -0.00766044 0.00642788
  vertex -4.06926e-19 -0.00733052 0.00680173
  vertex -3.87599e-19 -0.00698237 0.00715867
 endloop
endfacet
facet normal -1 5.5507108e-17 4.712157e-21
 outer loop
  vertex -3.87599e-19 -0.00698237 0.00715867
  vertex -3.67309e-19 -0.00661686 0.00749781
  vertex -3.46106e-19 -0.0062349 0.00781832
 endloop
endfacet
facet normal -1 5.5509815e-17 2.5462736e-22
 outer loop
  vertex -3.46106e-19 -0.0062349 0.00781832
  vertex -3.24043e-19 -0.00583744 0.00811938
  vertex -3.01174e-19 -0.00542546 0.00840026
 endloop
endfacet
facet normal -1 5.551259e-17 -1.5920025e-21
 outer loop
  vertex -3.01174e-19 -0.00542546 0.00840026
  vertex -2.77556e-19 -0.005 0.00866025
  vertex -2.53248e-19 -0.00456211 0.00889872
 endloop
endfacet
facet normal -1 5.5505738e-17 1.1841741e-20
 outer loop
  vertex -2.53248e-19 -0.00456211 0.00889872
  vertex -2.2831e-19 -0.00411287 0.00911506
  vertex -2.02805e-19 -0.00365341 0.00930874
 endloop
endfacet
facet normal -1 5.5507968e-17 7.702835e-21
 outer loop
  vertex -2.02805e-19 -0.00365341 0.00930874
  vertex -1.76796e-19 -0.00318487 0.00947927
  vertex -1.50347e-19 -0.0027084 0.00962624
 endloop
endfacet
facet normal -1 5.550611e-17 2.4439413e-20
 outer loop
  vertex -1.50347e-19 -0.0027084 0.00962624
  vertex -1.23524e-19 -0.00222521 0.00974928
  vertex -9.63941e-20 -0.00173648 0.00984808
 endloop
endfacet
facet normal -1 5.5509226e-17 1.6555466e-20
 outer loop
  vertex -9.63941e-20 -0.00173648 0.00984808
  vertex -6.90246e-20 -0.00124344 0.00992239
  vertex -4.14835e-20 -0.000747301 0.00997204
 endloop
endfacet
facet normal -1 5.551108e-17 5.093205e-22
 outer loop
  vertex -4.14835e-20 -0.000747301 0.00997204
  vertex -1.38393e-20 -0.000249307 0.00999689
  vertex 1.38393e-20 0.000249307 0.00999689
 endloop
endfacet
facet normal -1 5.551134e-17 4.836522e-21
 outer loop
  vertex 1.38393e-20 0.000249307 0.00999689
  vertex 4.14835e-20 0.000747301 0.00997204
  vertex 6.90246e-20 0.00124344 0.00992239
 endloop
endfacet
facet normal -1 5.551362e-17 1.2729299e-20
 outer loop
  vertex 6.90246e-20 0.00124344 0.00992239
  vertex 9.63941e-20 0.00173648 0.00984808
  vertex 1.23524e-19 0.00222521 0.00974928
 endloop
endfacet
facet normal -1 5.552188e-17 3.7504695e-20
 outer loop
  vertex 1.23524e-19 0.00222521 0.00974928
  vertex 1.50347e-19 0.0027084 0.00962624
  vertex 1.76796e-19 0.00318487 0.00947927
 endloop
endfacet
facet normal -1 5.551045e-17 -8.910364e-22
 outer loop
  vertex 1.76796e-19 0.00318487 0.00947927
  vertex 2.02805e-19 0.00365341 0.00930874
  vertex 2.2831e-19 0.00411287 0.00911506
 endloop
endfacet
facet normal -1 5.5509593e-17 -3.8815337e-21
 outer loop
  vertex 2.2831e-19 0.00411287 0.00911506
  vertex 2.53248e-19 0.00456211 0.00889872
  vertex 2.77556e-19 0.005 0.00866025
 endloop
endfacet
facet normal -1 5.552614e-17 2.368097e-20
 outer loop
  vertex 2.77556e-19 0.005 0.00866025
  vertex 3.01174e-19 0.00542546 0.00840026
  vertex 3.24043e-19 0.00583744 0.00811938
 endloop
endfacet
facet normal -1 5.549976e-17 -1.3553957e-20
 outer loop
  vertex 3.24043e-19 0.00583744 0.00811938
  vertex 3.46106e-19 0.0062349 0.00781832
  vertex 3.67309e-19 0.00661686 0.00749781
 endloop
endfacet
facet normal -1 5.5493615e-17 -1.9286353e-20
 outer loop
  vertex 3.67309e-19 0.00661686 0.00749781
  vertex 3.87599e-19 0.00698237 0.00715867
  vertex 4.06926e-19 0.00733052 0.00680173
 endloop
endfacet
facet normal -1 5.551319e-17 2.418749e-21
 outer loop
  vertex 4.06926e-19 0.00733052 0.00680173
  vertex 4.2524e-19 0.00766044 0.00642788
  vertex 4.42497e-19 0.00797132 0.00603804
 endloop
endfacet
facet normal -1 5.551831e-17 4.2631895e-21
 outer loop
  vertex 4.42497e-19 0.00797132 0.00603804
  vertex 4.58655e-19 0.00826239 0.0056332
  vertex 4.73672e-19 0.00853291 0.00521435
 endloop
endfacet
facet normal -1 5.549626e-17 -7.414372e-21
 outer loop
  vertex 4.73672e-19 0.00853291 0.00521435
  vertex 4.87511e-19 0.00878222 0.00478254
  vertex 5.00138e-19 0.00900969 0.00433884
 endloop
endfacet
facet normal -1 5.553984e-17 1.2273733e-20
 outer loop
  vertex 5.00138e-19 0.00900969 0.00433884
  vertex 5.11522e-19 0.00921476 0.00388435
  vertex 5.21634e-19 0.00939693 0.0034202
 endloop
endfacet
facet normal -1 5.5475573e-17 -1.163164e-20
 outer loop
  vertex 5.21634e-19 0.00939693 0.0034202
  vertex 5.30449e-19 0.00955573 0.00294755
  vertex 5.37946e-19 0.00969077 0.00246757
 endloop
endfacet
facet normal -1 5.5504924e-17 -5.70961e-22
 outer loop
  vertex 5.37946e-19 0.00969077 0.00246757
  vertex 5.48911e-19 0.00988831 0.00149042
  vertex 5.54421e-19 0.00998757 0.000498459
 endloop
endfacet
facet normal -1 5.551063e-17 0
 outer loop
  vertex 5.54421e-19 0.00998757 0.000498459
  vertex 5.54421e-19 0.00998757 -0.000498459
  vertex 5.48911e-19 0.00988831 -0.00149042
 endloop
endfacet
facet normal -1 5.552375e-17 -3.2330078e-21
 outer loop
  vertex 5.48911e-19 0.00988831 -0.00149042
  vertex 5.37946e-19 0.00969077 -0.00246757
  vertex 5.21634e-19 0.00939693 -0.0034202
 endloop
endfacet
facet normal -1 5.5506767e-17 1.6820416e-21
 outer loop
  vertex 5.21634e-19 0.00939693 -0.0034202
  vertex 5.00138e-19 0.00900969 -0.00433884
  vertex 4.73672e-19 0.00853291 -0.00521435
 endloop
endfacet
facet normal -1 5.5502635e-17 6.4263007e-21
 outer loop
  vertex 4.73672e-19 0.00853291 -0.00521435
  vertex 4.42497e-19 0.00797132 -0.00603804
  vertex 4.06926e-19 0.00733052 -0.00680173
 endloop
endfacet
facet normal -1 5.5502016e-17 1.0683034e-20
 outer loop
  vertex 4.06926e-19 0.00733052 -0.00680173
  vertex 3.67309e-19 0.00661686 -0.00749781
  vertex 3.24043e-19 0.00583744 -0.00811938
 endloop
endfacet
facet normal -1 5.5514725e-17 -6.0591808e-21
 outer loop
  vertex 3.24043e-19 0.00583744 -0.00811938
  vertex 2.77556e-19 0.005 -0.00866025
  vertex 2.2831e-19 0.00411287 -0.00911506
 endloop
endfacet
facet normal -1 5.5512746e-17 -5.1023404e-21
 outer loop
  vertex 2.2831e-19 0.00411287 -0.00911506
  vertex 1.76796e-19 0.00318487 -0.00947927
  vertex 1.23524e-19 0.00222521 -0.00974928
 endloop
endfacet
facet normal -1 5.5510705e-17 3.7628636e-21
 outer loop
  vertex 1.23524e-19 0.00222521 -0.00974928
  vertex 6.90246e-20 0.00124344 -0.00992239
  vertex 1.38393e-20 0.000249307 -0.00999689
 endloop
endfacet
facet normal -1 5.5511042e-17 -1.9132035e-21
 outer loop
  vertex 1.38393e-20 0.000249307 -0.00999689
  vertex -4.14835e-20 -0.000747301 -0.00997204
  vertex -9.63941e-20 -0.00173648 -0.00984808
 endloop
endfacet
facet normal -1 5.551414e-17 1.0779292e-20
 outer loop
  vertex -9.63941e-20 -0.00173648 -0.00984808
  vertex -1.50347e-19 -0.0027084 -0.00962624
  vertex -2.02805e-19 -0.00365341 -0.00930874
 endloop
endfacet
facet normal -1 5.550916e-17 -4.3683432e-21
 outer loop
  vertex -2.02805e-19 -0.00365341 -0.00930874
  vertex -2.53248e-19 -0.00456211 -0.00889872
  vertex -3.01174e-19 -0.00542546 -0.00840026
 endloop
endfacet
facet normal -1 5.5504153e-17 -8.066801e-21
 outer loop
  vertex -3.01174e-19 -0.00542546 -0.00840026
  vertex -3.46106e-19 -0.0062349 -0.00781832
  vertex -3.87599e-19 -0.00698237 -0.00715867
 endloop
endfacet
facet normal -1 5.5515135e-17 2.9338246e-21
 outer loop
  vertex -3.87599e-19 -0.00698237 -0.00715867
  vertex -4.2524e-19 -0.00766044 -0.00642788
  vertex -4.58655e-19 -0.00826239 -0.0056332
 endloop
endfacet
facet normal -1 5.5506082e-17 -2.6624452e-21
 outer loop
  vertex -4.58655e-19 -0.00826239 -0.0056332
  vertex -4.87511e-19 -0.00878222 -0.00478254
  vertex -5.11522e-19 -0.00921476 -0.00388435
 endloop
endfacet
facet normal -1 5.5497767e-17 -4.2127618e-21
 outer loop
  vertex -5.11522e-19 -0.00921476 -0.00388435
  vertex -5.30449e-19 -0.00955573 -0.00294755
  vertex -5.44105e-19 -0.00980172 -0.00198146
 endloop
endfacet
facet normal -1 5.550081e-17 -1.1906939e-21
 outer loop
  vertex -5.44105e-19 -0.00980172 -0.00198146
  vertex -5.52353e-19 -0.00995031 -0.000995678
  vertex -5.55112e-19 -0.01 -3.43025e-17
 endloop
endfacet
facet normal -1 5.550081e-17 1.1906939e-21
 outer loop
  vertex -5.55112e-19 -0.01 -3.43025e-17
  vertex -5.52353e-19 -0.00995031 0.000995678
  vertex -5.44105e-19 -0.00980172 0.00198146
 endloop
endfacet
facet normal -1 5.5497767e-17 4.2127618e-21
 outer loop
  vertex -5.44105e-19 -0.00980172 0.00198146
  vertex -5.30449e-19 -0.00955573 0.00294755
  vertex -5.11522e-19 -0.00921476 0.00388435
 endloop
endfacet
facet normal -1 5.5506082e-17 2.6624452e-21
 outer loop
  vertex -5.11522e-19 -0.00921476 0.00388435
  vertex -4.87511e-19 -0.00878222 0.00478254
  vertex -4.58655e-19 -0.00826239 0.0056332
 endloop
endfacet
facet normal -1 5.5515135e-17 -2.9338246e-21
 outer loop
  vertex -4.58655e-19 -0.00826239 0.0056332
  vertex -4.2524e-19 -0.00766044 0.00642788
  vertex -3.87599e-19 -0.00698237 0.00715867
 endloop
endfacet
facet normal -1 5.5504153e-17 8.066801e-21
 outer loop
  vertex -3.87599e-19 -0.00698237 0.00715867
  vertex -3.46106e-19 -0.0062349 0.00781832
  vertex -3.01174e-19 -0.00542546 0.00840026
 endloop
endfacet
facet normal -1 5.550916e-17 4.3683432e-21
 outer loop
  vertex -3.01174e-19 -0.00542546 0.00840026
  vertex -2.53248e-19 -0.00456211 0.00889872
  vertex -2.02805e-19 -0.00365341 0.00930874
 endloop
endfacet
facet normal -1 5.551414e-17 -1.0779292e-20
 outer loop
  vertex -2.02805e-19 -0.00365341 0.00930874
  vertex -1.50347e-19 -0.0027084 0.00962624
  vertex -9.63941e-20 -0.00173648 0.00984808
 endloop
endfacet
facet normal -1 5.5511042e-17 1.9132035e-21
 outer loop
  vertex -9.63941e-20 -0.00173648 0.00984808
  vertex -4.14835e-20 -0.000747301 0.00997204
  vertex 1.38393e-20 0.000249307 0.00999689
 endloop
endfacet
facet normal -1 5.5510705e-17 -3.7628636e-21
 outer loop
  vertex 1.38393e-20 0.000249307 0.00999689
  vertex 6.90246e-20 0.00124344 0.00992239
  vertex 1.23524e-19 0.00222521 0.00974928
 endloop
endfacet
facet normal -1 5.5512746e-17 5.1023404e-21
 outer loop
  vertex 1.23524e-19 0.00222521 0.00974928
  vertex 1.76796e-19 0.00318487 0.00947927
  vertex 2.2831e-19 0.00411287 0.00911506
 endloop
endfacet
facet normal -1 5.5514725e-17 6.0591808e-21
 outer loop
  vertex 2.2831e-19 0.00411287 0.00911506
  vertex 2.77556e-19 0.005 0.00866025
  vertex 3.24043e-19 0.00583744 0.00811938
 endloop
endfacet
facet normal -1 5.5502016e-17 -1.0683034e-20
 outer loop
  vertex 3.24043e-19 0.00583744 0.00811938
  vertex 3.67309e-19 0.00661686 0.00749781
  vertex 4.06926e-19 0.00733052 0.00680173
 endloop
endfacet
facet normal -1 5.5502635e-17 -6.4263007e-21
 outer loop
  vertex 4.06926e-19 0.00733052 0.00680173
  vertex 4.42497e-19 0.00797132 0.00603804
  vertex 4.73672e-19 0.00853291 0.00521435
 endloop
endfacet
facet normal -1 5.5506767e-17 -1.6820416e-21
 outer loop
  vertex 4.73672e-19 0.00853291 0.00521435
  vertex 5.00138e-19 0.00900969 0.00433884
  vertex 5.21634e-19 0.00939693 0.0034202
 endloop
endfacet
facet normal -1 5.551761e-17 1.3411556e-21
 outer loop
  vertex 5.21634e-19 0.00939693 0.0034202
  vertex 5.37946e-19 0.00969077 0.00246757
  vertex 5.54421e-19 0.00998757 0.000498459
 endloop
endfacet
facet normal -1 5.551115e-17 -2.5852141e-23
 outer loop
  vertex 5.54421e-19 0.00998757 0.000498459
  vertex 5.48911e-19 0.00988831 -0.00149042
  vertex 5.21634e-19 0.00939693 -0.0034202
 endloop
endfacet
facet normal -1 5.5512667e-17 -1.1646105e-21
 outer loop
  vertex 5.21634e-19 0.00939693 -0.0034202
  vertex 4.73672e-19 0.00853291 -0.00521435
  vertex 4.06926e-19 0.00733052 -0.00680173
 endloop
endfacet
facet normal -1 5.5510853e-17 6.7466035e-22
 outer loop
  vertex 4.06926e-19 0.00733052 -0.00680173
  vertex 3.24043e-19 0.00583744 -0.00811938
  vertex 2.2831e-19 0.00411287 -0.00911506
 endloop
endfacet
facet normal -1 5.551125e-17 -6.2646653e-22
 outer loop
  vertex 2.2831e-19 0.00411287 -0.00911506
  vertex 1.23524e-19 0.00222521 -0.00974928
  vertex 1.38393e-20 0.000249307 -0.00999689
 endloop
endfacet
facet normal -1 5.551122e-17 3.855177e-22
 outer loop
  vertex 1.38393e-20 0.000249307 -0.00999689
  vertex -9.63941e-20 -0.00173648 -0.00984808
  vertex -2.02805e-19 -0.00365341 -0.00930874
 endloop
endfacet
facet normal -1 5.551285e-17 2.8271937e-21
 outer loop
  vertex -2.02805e-19 -0.00365341 -0.00930874
  vertex -3.01174e-19 -0.00542546 -0.00840026
  vertex -3.87599e-19 -0.00698237 -0.00715867
 endloop
endfacet
facet normal -1 5.551279e-17 9.718293e-22
 outer loop
  vertex -3.87599e-19 -0.00698237 -0.00715867
  vertex -4.58655e-19 -0.00826239 -0.0056332
  vertex -5.11522e-19 -0.00921476 -0.00388435
 endloop
endfacet
facet normal -1 5.551079e-17 -1.9276393e-22
 outer loop
  vertex -5.11522e-19 -0.00921476 -0.00388435
  vertex -5.44105e-19 -0.00980172 -0.00198146
  vertex -5.55112e-19 -0.01 -3.43025e-17
 endloop
endfacet
facet normal -1 5.551079e-17 1.9276393e-22
 outer loop
  vertex -5.55112e-19 -0.01 -3.43025e-17
  vertex -5.44105e-19 -0.00980172 0.00198146
  vertex -5.11522e-19 -0.00921476 0.00388435
 endloop
endfacet
facet normal -1 5.551279e-17 -9.718293e-22
 outer loop
  vertex -5.11522e-19 -0.00921476 0.00388435
  vertex -4.58655e-19 -0.00826239 0.0056332
  vertex -3.87599e-19 -0.00698237 0.00715867
 endloop
endfacet
facet normal -1 5.551285e-17 -2.8271937e-21
 outer loop
  vertex -3.87599e-19 -0.00698237 0.00715867
  vertex -3.01174e-19 -0.00542546 0.00840026
  vertex -2.02805e-19 -0.00365341 0.00930874
 endloop
endfacet
facet normal -1 5.551122e-17 -3.855177e-22
 outer loop
  vertex -2.02805e-19 -0.00365341 0.00930874
  vertex -9.63941e-20 -0.00173648 0.00984808
  vertex 1.38393e-20 0.000249307 0.00999689
 endloop
endfacet
facet normal -1 5.551125e-17 6.2646653e-22
 outer loop
  vertex 1.38393e-20 0.000249307 0.00999689
  vertex 1.23524e-19 0.00222521 0.00974928
  vertex 2.2831e-19 0.00411287 0.00911506
 endloop
endfacet
facet normal -1 5.5510853e-17 -6.7466035e-22
 outer loop
  vertex 2.2831e-19 0.00411287 0.00911506
  vertex 3.24043e-19 0.00583744 0.00811938
  vertex 4.06926e-19 0.00733052 0.00680173
 endloop
endfacet
facet normal -1 5.5512667e-17 1.1646105e-21
 outer loop
  vertex 4.06926e-19 0.00733052 0.00680173
  vertex 4.73672e-19 0.00853291 0.00521435
  vertex 5.21634e-19 0.00939693 0.0034202
 endloop
endfacet
facet normal -1 5.5510976e-17 0
 outer loop
  vertex 5.21634e-19 0.00939693 0.0034202
  vertex 5.54421e-19 0.00998757 0.000498459
  vertex 5.21634e-19 0.00939693 -0.0034202
 endloop
endfacet
facet normal -1 5.5511753e-17 -6.08299e-22
 outer loop
  vertex 5.21634e-19 0.00939693 -0.0034202
  vertex 4.06926e-19 0.00733052 -0.00680173
  vertex 2.2831e-19 0.00411287 -0.00911506
 endloop
endfacet
facet normal -1 5.5511135e-17 -9.1038625e-23
 outer loop
  vertex 2.2831e-19 0.00411287 -0.00911506
  vertex 1.38393e-20 0.000249307 -0.00999689
  vertex -2.02805e-19 -0.00365341 -0.00930874
 endloop
endfacet
facet normal -1 5.5510784e-17 -3.8484257e-22
 outer loop
  vertex -2.02805e-19 -0.00365341 -0.00930874
  vertex -3.87599e-19 -0.00698237 -0.00715867
  vertex -5.11522e-19 -0.00921476 -0.00388435
 endloop
endfacet
facet normal -1 5.551174e-17 0
 outer loop
  vertex -5.11522e-19 -0.00921476 -0.00388435
  vertex -5.55112e-19 -0.01 -3.43025e-17
  vertex -5.11522e-19 -0.00921476 0.00388435
 endloop
endfacet
facet normal -1 5.5510784e-17 3.8484257e-22
 outer loop
  vertex -5.11522e-19 -0.00921476 0.00388435
  vertex -3.87599e-19 -0.00698237 0.00715867
  vertex -2.02805e-19 -0.00365341 0.00930874
 endloop
endfacet
facet normal -1 5.5511135e-17 9.1038625e-23
 outer loop
  vertex -2.02805e-19 -0.00365341 0.00930874
  vertex 1.38393e-20 0.000249307 0.00999689
  vertex 2.2831e-19 0.00411287 0.00911506
 endloop
endfacet
facet normal -1 5.5511753e-17 6.08299e-22
 outer loop
  vertex 2.2831e-19 0.00411287 0.00911506
  vertex 4.06926e-19 0.00733052 0.00680173
  vertex 5.21634e-19 0.00939693 0.0034202
 endloop
endfacet
facet normal -1 5.5511105e-17 0
 outer loop
  vertex 5.21634e-19 0.00939693 0.0034202
  vertex 5.21634e-19 0.00939693 -0.0034202
  vertex 2.2831e-19 0.00411287 -0.00911506
 endloop
endfacet
facet normal -1 5.551113e-17 -2.8045498e-23
 outer loop
  vertex 2.2831e-19 0.00411287 -0.00911506
  vertex -2.02805e-19 -0.00365341 -0.00930874
  vertex -5.11522e-19 -0.00921476 -0.00388435
 endloop
endfacet
facet normal -1 5.551116e-17 0
 outer loop
  vertex -5.11522e-19 -0.00921476 -0.00388435
  vertex -5.11522e-19 -0.00921476 0.00388435
  vertex -2.02805e-19 -0.00365341 0.00930874
 endloop
endfacet
facet normal -1 5.5511138e-17 2.8045495e-23
 outer loop
  vertex -2.02805e-19 -0.00365341 0.00930874
  vertex 2.2831e-19 0.00411287 0.00911506
  vertex 5.21634e-19 0.00939693 0.0034202
 endloop
endfacet
facet normal -1 5.5511138e-17 -1.4520848e-23
 outer loop
  vertex 5.21634e-19 0.00939693 0.0034202
  vertex 2.2831e-19 0.00411287 -0.00911506
  vertex -5.11522e-19 -0.00921476 -0.00388435
 endloop
endfacet
facet normal -1 5.5511125e-17 1.3796811e-23
 outer loop
  vertex -5.11522e-19 -0.00921476 -0.00388435
  vertex -2.02805e-19 -0.00365341 0.00930874
  vertex 5.21634e-19 0.00939693 0.0034202
 endloop
endfacet
endsolid 
